HIERARCHY
ROOT reference
{
	OFFSET 0.000000 0.000000 0.000000
	CHANNELS 6 Xposition Yposition Zposition Xrotation Yrotation Zrotation
	JOINT root
	{
		OFFSET 0.000000 89.855103 0.000000
		CHANNELS 3 Xrotation Yrotation Zrotation
		JOINT Hips
		{
			OFFSET 0.000000 0.000000 0.000000
			CHANNELS 3 Xrotation Yrotation Zrotation
			JOINT Spine
			{
				OFFSET 0.026469 -0.105484 0.013597
				CHANNELS 3 Xrotation Yrotation Zrotation
				JOINT Spine1
				{
					OFFSET -4.853550 17.193398 -5.027490
					CHANNELS 3 Xrotation Yrotation Zrotation
					JOINT Spine2
					{
						OFFSET -3.457120 17.043297 -6.489560
						CHANNELS 3 Xrotation Yrotation Zrotation
						JOINT Neck
						{
							OFFSET -5.140732 15.586197 -8.669390
							CHANNELS 3 Xrotation Yrotation Zrotation
							JOINT Head
							{
								OFFSET -4.152541 8.554855 -6.523941
								CHANNELS 3 Xrotation Yrotation Zrotation
								End Site
								{
									OFFSET 0.000000 0.100006 0.000000
								}
							}
						}
						JOINT RightShoulder
						{
							OFFSET -3.299632 14.542206 -11.633701
							CHANNELS 3 Xrotation Yrotation Zrotation
							JOINT RightArm
							{
								OFFSET 5.333368 -8.032135 -12.870399
								CHANNELS 3 Xrotation Yrotation Zrotation
								JOINT RightForeArm
								{
									OFFSET 0.595325 -13.786201 -25.966301
									CHANNELS 3 Xrotation Yrotation Zrotation
									JOINT RightHand
									{
										OFFSET -13.517003 -1.520020 -20.889702
										CHANNELS 3 Xrotation Yrotation Zrotation
										End Site
										{
											OFFSET 0.000000 0.099998 0.000000
										}
									}
								}
							}
						}
						JOINT LeftShoulder
						{
							OFFSET -6.992720 16.618195 -5.713737
							CHANNELS 3 Xrotation Yrotation Zrotation
							JOINT LeftArm
							{
								OFFSET -6.718669 3.247330 14.245000
								CHANNELS 3 Xrotation Yrotation Zrotation
								JOINT LeftForeArm
								{
									OFFSET 8.817474 -14.592697 23.957705
									CHANNELS 3 Xrotation Yrotation Zrotation
									JOINT LeftHand
									{
										OFFSET -10.526400 -21.311096 7.512091
										CHANNELS 3 Xrotation Yrotation Zrotation
										End Site
										{
											OFFSET 0.000000 0.099998 0.000000
										}
									}
								}
							}
						}
					}
				}
			}
			JOINT RightUpLeg
			{
				OFFSET 4.593210 -0.383110 -8.373450
				CHANNELS 3 Xrotation Yrotation Zrotation
				JOINT RightLeg
				{
					OFFSET -10.211304 -39.045300 -19.959900
					CHANNELS 3 Xrotation Yrotation Zrotation
					JOINT RightFoot
					{
						OFFSET 4.846910 -40.874802 -1.152691
						CHANNELS 3 Xrotation Yrotation Zrotation
						JOINT RightToe
						{
							OFFSET -9.736731 -6.853460 -13.504299
							CHANNELS 3 Xrotation Yrotation Zrotation
							End Site
							{
								OFFSET 0.000000 0.100000 0.000000
							}
						}
					}
				}
			}
			JOINT LeftUpLeg
			{
				OFFSET -4.593200 0.383110 8.373450
				CHANNELS 3 Xrotation Yrotation Zrotation
				JOINT LeftLeg
				{
					OFFSET -5.425017 -42.685699 13.255200
					CHANNELS 3 Xrotation Yrotation Zrotation
					JOINT LeftFoot
					{
						OFFSET 11.095302 -37.689899 12.326298
						CHANNELS 3 Xrotation Yrotation Zrotation
						JOINT LeftToe
						{
							OFFSET -16.356800 -7.519030 -0.239269
							CHANNELS 3 Xrotation Yrotation Zrotation
							End Site
							{
								OFFSET 0.000000 0.100000 0.000000
							}
						}
					}
				}
			}
		}
	}
}
MOTION
Frames: 13
Frame Time: 0.041667
0.000000 0.000000 0.000000 -0.000000 0.000000 -0.000000 14.579717 5.482612 1.775130 1.788019 0.674245 0.943197 10.577973 -2.604155 3.762350 10.949622 -3.309109 3.894018 7.416458 -1.929269 2.892601 -8.831067 1.153578 1.483118 -16.247734 0.992255 -3.239101 14.131889 -6.120955 10.247137 9.074844 -34.390545 -18.625477 -0.186881 -0.274002 0.140602 48.300236 -19.610486 24.045988 1.074012 0.358943 0.456691 -27.082064 21.196865 -51.892209 26.868414 -30.397029 -20.439812 13.887889 16.383908 -6.944750 -14.487454 -8.107491 -7.225970 -4.730742 -0.823398 3.710752 -4.995500 -0.669098 0.832720 7.722912 0.241878 3.724232 -16.193474 -2.456044 -11.578287 -0.654803 3.071096 9.908730 -8.513149 -1.058082 -8.857443 4.378265 -0.033108 3.072669 
0.000000 0.000000 0.000000 -0.000000 0.000000 -0.000000 18.016279 1.566791 1.410474 -0.395617 -0.144799 -0.210714 10.385099 -1.804038 3.732446 10.797485 -2.357501 3.814621 7.310432 -1.288949 2.788746 -8.612225 1.352357 1.242167 -15.737603 1.399880 -3.469944 13.339892 -6.689768 10.062586 4.543293 -34.376769 -20.627701 -0.040548 -0.059332 0.030528 48.464242 -20.975176 24.828853 1.372091 0.260326 0.663667 -24.129282 20.573325 -51.207339 24.979557 -27.722524 -19.260572 13.247312 16.105386 -7.020050 -12.459592 -6.590244 -7.552236 -7.082459 -1.350825 5.544364 -4.095097 -0.649714 3.632269 7.799968 0.434854 1.132835 -15.592321 -4.057934 -13.320189 -2.153730 6.580037 22.055961 -15.225771 1.066548 -16.884101 5.378523 -0.007712 3.774528 
0.000000 0.000000 0.000000 -0.000000 0.000000 -0.000000 18.563793 -1.444500 0.324633 -0.402527 -0.147310 -0.214400 9.758890 -1.362156 3.556745 10.127438 -1.752985 3.582990 6.856103 -0.894217 2.596779 -8.168591 1.550794 1.183841 -14.984930 1.691739 -3.226238 12.234235 -7.211054 9.641574 0.275013 -30.929193 -19.911065 0.546436 0.792922 -0.413343 48.060510 -20.750871 25.434506 1.285143 -0.382456 0.868792 -21.477465 17.453686 -46.357836 22.911043 -24.861938 -17.902573 12.006874 14.414518 -5.888073 -9.759353 -3.967581 -7.191327 -8.082805 -1.599168 6.321608 -8.231033 -2.496065 5.775377 10.896372 0.690737 -0.464881 -14.189642 -5.244195 -13.143546 -3.202057 8.226706 28.319571 -20.604370 3.949052 -20.655247 6.386515 0.030282 4.481508 
0.000000 0.000000 0.000000 -0.000000 0.000000 -0.000000 17.792995 -3.237696 0.409572 -0.408837 -0.149160 -0.217118 8.896454 -1.139900 3.086762 9.242973 -1.489364 3.039278 6.261255 -0.749621 2.209439 -7.568870 1.687568 1.040713 -13.916025 1.892404 -3.020898 11.929296 -7.786617 9.765429 -4.683471 -27.093387 -21.522286 1.318570 1.892364 -1.002834 43.643662 -18.532299 24.282878 1.293394 -1.095098 1.150063 -19.004125 13.708957 -40.356664 20.645025 -21.824894 -16.344463 10.651937 12.746891 -4.847122 -6.310625 0.037329 -6.748999 -6.836452 -1.291945 5.352966 -18.674113 -5.093678 6.890464 15.406581 0.757992 0.872842 -11.657739 -4.112436 -12.352193 -3.238826 8.277727 28.521946 -23.715098 4.963051 -21.691602 7.369708 0.079345 5.170728 
0.000000 0.000000 0.000000 -0.000000 0.000000 -0.000000 16.966612 -3.871549 0.578047 -0.411759 -0.150895 -0.219651 8.397372 -1.004270 2.822780 8.739185 -1.324962 2.738566 5.921942 -0.658015 1.993753 -7.191305 1.755727 0.880701 -13.198538 2.037405 -2.998573 11.535982 -7.765707 9.499803 -5.450091 -25.068502 -20.751749 1.447399 2.073390 -1.101768 40.504156 -16.279220 23.265525 1.214387 -1.469752 1.246357 -17.893965 12.045857 -37.390778 19.483021 -20.310920 -15.519990 9.945888 11.860516 -4.349788 -4.582479 2.226516 -6.410278 -6.357946 -1.179923 4.980388 -21.059488 -5.135980 4.691749 11.080328 -0.361960 7.563658 -10.193077 -2.787912 -11.743141 -2.977422 7.906322 27.061375 -24.487955 4.655908 -21.614904 7.842030 0.107135 5.501668 
0.000000 0.000000 0.000000 -0.000000 0.000000 -0.000000 14.824999 -4.616571 0.887112 -0.417053 -0.152591 -0.222151 7.247528 -0.759812 2.343518 7.569303 -1.018387 2.231733 5.131247 -0.486944 1.626011 -6.291415 1.735442 0.545664 -11.486662 2.083066 -2.918506 10.535255 -7.554339 8.753908 -5.142141 -20.267808 -17.433749 1.522118 2.178112 -1.159229 32.358735 -10.434932 20.582036 1.004897 -1.920645 1.290963 -15.758245 9.785405 -31.795173 16.985965 -17.164542 -13.696110 8.476068 10.231996 -3.630254 -1.466686 2.719785 -6.954368 -8.862524 -1.802702 6.926208 -17.511792 -2.810759 3.345647 -0.511114 -0.004096 -0.331666 -7.210971 0.400258 -9.593093 -2.053975 6.399787 21.397743 -24.969090 3.197807 -20.220092 8.729202 0.166728 6.122926 
0.000000 0.000000 0.000000 -0.000000 0.000000 -0.000000 12.301164 -4.579087 1.453969 -0.421457 -0.154254 -0.224505 5.938500 -0.599527 1.781123 6.226404 -0.840063 1.647208 4.223792 -0.410870 1.211656 -5.348586 1.595885 0.448990 -9.836003 1.844756 -2.448264 9.472942 -6.994319 7.812211 -5.113931 -15.341578 -13.968272 2.360172 3.336684 -1.807503 22.164278 -2.682987 15.704227 0.957071 -1.976686 1.283180 -13.387178 8.337362 -25.927666 13.834020 -13.414150 -11.305583 6.815030 8.748124 -3.031592 -0.134560 2.196007 -7.194028 -11.113011 -2.439547 8.664737 -16.229860 -2.186130 2.857484 -0.935691 0.035495 -0.520911 -4.500397 4.603363 -6.229274 -0.812982 3.562785 11.542184 -23.621579 0.572590 -16.652476 9.516278 0.227690 6.673673 
0.000000 0.000000 0.000000 -0.000000 0.000000 -0.000000 7.466231 -4.220566 0.796393 1.248786 0.467524 0.660343 4.547450 -0.620080 1.295014 4.719233 -0.665433 1.123491 3.203312 -0.336917 0.837162 -4.292345 1.433802 0.271615 -7.930908 1.668525 -2.030542 7.908244 -5.803676 6.297767 -4.667797 -10.598914 -10.128285 3.208941 4.480929 -2.470826 13.391309 2.724195 9.731242 0.931217 -2.046763 1.293622 -10.748166 7.181544 -19.064038 10.443404 -9.666762 -8.641791 5.176924 7.043906 -2.255136 -0.198209 2.489913 -5.385574 -8.504742 -1.708205 6.648919 -19.782203 -3.292086 1.525043 10.977454 -0.221700 5.559927 -1.798867 9.490316 -1.315740 0.062932 -0.583523 -1.845763 -20.155685 -2.262739 -10.829746 10.178188 0.284852 7.136455 
0.000000 0.000000 0.000000 -0.000000 0.000000 -0.000000 1.970383 -2.974826 -0.582468 3.211923 1.235922 1.683118 3.250347 -0.846495 0.918676 3.266813 -0.518346 0.719760 2.218622 -0.275140 0.545447 -2.881135 1.083096 0.119344 -5.361750 1.290677 -1.399092 5.797386 -4.270347 4.421444 -2.975137 -6.260837 -5.964934 2.883431 4.045555 -2.215655 7.886618 4.817420 5.569014 0.983770 -2.178774 1.373526 -8.632442 5.548456 -12.441698 7.161173 -6.326383 -5.988060 3.610531 4.856165 -1.315865 -1.195301 3.195103 -1.167070 -2.115092 -0.329140 1.662274 -17.315718 -3.191987 -0.593906 14.531583 0.680147 6.641059 0.257677 12.954075 7.741087 -0.429473 -6.746002 -21.435319 -15.894376 -3.383243 -0.478040 10.693808 0.333109 7.496751 
0.000000 0.000000 0.000000 -0.000000 0.000000 -0.000000 0.678047 -2.094710 -0.570421 3.008289 1.154355 1.577927 2.531184 -0.787692 0.682379 2.496871 -0.417299 0.489970 1.696441 -0.228549 0.378320 -2.094252 0.848717 0.079138 -3.929417 1.038845 -0.993554 4.208278 -2.999823 3.049538 -1.487119 -5.295178 -3.802455 2.562526 3.612155 -1.965043 6.105508 4.143663 4.491413 0.810472 -1.783649 1.125219 -7.089958 3.866688 -9.658685 5.432671 -4.680129 -4.565286 2.754504 3.505535 -0.827781 -1.859944 2.463069 0.341531 0.497073 0.068241 -0.391304 -12.498537 -2.337551 -1.643577 9.388343 0.157119 8.277246 1.049067 11.687842 8.055011 -0.428284 -6.741354 -21.420131 -13.404689 -3.206668 0.294817 6.990264 0.238993 7.124984 
0.000000 0.000000 0.000000 -0.000000 0.000000 -0.000000 -0.020001 -0.654238 0.062285 1.195469 0.447267 0.632302 1.217777 -0.317146 0.294653 1.221745 -0.130293 0.196345 0.830069 -0.064952 0.150540 -0.783774 0.303365 -0.035422 -1.430030 0.422751 -0.468245 1.769512 -1.084485 1.129702 -0.223803 -3.213143 -1.600688 1.648318 2.354424 -1.256429 2.812002 2.747593 2.245647 0.269999 -0.708586 0.415100 -3.537403 1.133416 -4.991551 2.332737 -1.919196 -1.976150 1.237259 1.639235 -0.449807 -2.382853 0.577396 1.123181 3.467974 0.404185 -2.734169 -2.858254 -1.051107 0.627061 -0.018291 -0.000197 -0.011863 1.429876 3.782348 2.739739 0.137544 -2.469816 -7.784566 -1.599740 -0.772952 0.456078 -1.571913 -0.639448 -1.579701 
0.000000 0.000000 0.000000 -0.000000 0.000000 -0.000000 -0.020001 -0.654238 0.062285 1.195469 0.447267 0.632302 1.217777 -0.317146 0.294653 1.221745 -0.130293 0.196345 0.830069 -0.064952 0.150540 -0.783774 0.303365 -0.035422 -1.430030 0.422751 -0.468245 1.769512 -1.084485 1.129702 -0.223803 -3.213143 -1.600688 1.648318 2.354424 -1.256429 2.812002 2.747593 2.245647 0.269999 -0.708586 0.415100 -3.537403 1.133416 -4.991551 2.332737 -1.919196 -1.976150 1.237259 1.639235 -0.449807 -2.382853 0.577396 1.123181 3.467974 0.404185 -2.734169 -2.858254 -1.051107 0.627061 -0.018291 -0.000197 -0.011863 1.429876 3.782348 2.739739 0.137544 -2.469816 -7.784566 -1.599740 -0.772952 0.456078 -1.571913 -0.639448 -1.579701 
0.000000 0.000000 0.000000 -0.000000 0.000000 -0.000000 -0.020001 -0.654238 0.062285 1.195469 0.447267 0.632302 1.217777 -0.317146 0.294653 1.221745 -0.130293 0.196345 0.830069 -0.064952 0.150540 -0.783774 0.303365 -0.035422 -1.430030 0.422751 -0.468245 1.769512 -1.084485 1.129702 -0.223803 -3.213143 -1.600688 1.648318 2.354424 -1.256429 2.812002 2.747593 2.245647 0.269999 -0.708586 0.415100 -3.537403 1.133416 -4.991551 2.332737 -1.919196 -1.976150 1.237259 1.639235 -0.449807 -2.382853 0.577396 1.123181 3.467974 0.404185 -2.734169 -2.858254 -1.051107 0.627061 -0.018291 -0.000197 -0.011863 1.429876 3.782348 2.739739 0.137544 -2.469816 -7.784566 -1.599740 -0.772952 0.456078 -1.571913 -0.639448 -1.579701 
